{
  "accessors": [
    {
      "bufferView": 3,
      "componentType": 5126,
      "count": 402,
      "max": [
        0.43840616941452026,
        1.2798550128936768,
        0.4691615104675293
      ],
      "min": [
        -0.3926697075366974,
        -0.002574129030108452,
        -0.4682231545448303
      ],
      "type": "VEC3"
    },
    {
      "bufferView": 3,
      "byteOffset": 4824,
      "componentType": 5126,
      "count": 402,
      "max": [
        0.9995251893997192,
        0.9935969114303589,
        0.9920309782028198
      ],
      "min": [
        -0.9976773858070374,
        -0.9964069724082947,
        -0.9973562955856323
      ],
      "type": "VEC3"
    },
    {
      "bufferView": 2,
      "componentType": 5126,
      "count": 402,
      "max": [
        1.0,
        1.0478520393371582
      ],
      "min": [
        -0.022461000829935074,
        -0.1367190033197403
      ],
      "type": "VEC2"
    },
    {
      "bufferView": 1,
      "componentType": 5125,
      "count": 882,
      "type": "SCALAR"
    },
    {
      "bufferView": 3,
      "byteOffset": 9648,
      "componentType": 5126,
      "count": 22,
      "max": [
        0.05920816585421562,
        1.2798550128936768,
        0.13820978999137878
      ],
      "min": [
        -0.10233046114444733,
        1.0546965599060059,
        -0.14789971709251404
      ],
      "type": "VEC3"
    },
    {
      "bufferView": 3,
      "byteOffset": 9912,
      "componentType": 5126,
      "count": 22,
      "max": [
        0.7103362679481506,
        0.9552785158157349,
        0.9399259686470032
      ],
      "min": [
        -0.5246071219444275,
        0.30083948373794556,
        -0.9330618977546692
      ],
      "type": "VEC3"
    },
    {
      "bufferView": 2,
      "byteOffset": 3216,
      "componentType": 5126,
      "count": 22,
      "max": [
        1.0,
        0.9902340173721313
      ],
      "min": [
        -0.09375,
        0.011718999594449997
      ],
      "type": "VEC2"
    },
    {
      "bufferView": 1,
      "byteOffset": 3528,
      "componentType": 5125,
      "count": 36,
      "type": "SCALAR"
    },
    {
      "bufferView": 5,
      "componentType": 5126,
      "count": 35,
      "max": [
        1.0,
        0.9999858140945435,
        0.9977478384971619,
        0.0,
        0.664396345615387,
        1.0,
        0.9999666810035706,
        0.0,
        1.0000007152557373,
        0.8906056880950928,
        1.0,
        0.0,
        0.2589339315891266,
        0.9383858442306519,
        0.251729816198349,
        1.0
      ],
      "min": [
        -1.0,
        -0.9995120763778687,
        -0.9999757409095764,
        0.0,
        -0.647359311580658,
        -0.9906576871871948,
        -0.8960500359535217,
        0.0,
        -1.0,
        -0.961411714553833,
        -0.9976837038993835,
        0.0,
        -0.19933301210403442,
        -0.995514988899231,
        -0.9652011394500732,
        1.0
      ],
      "type": "MAT4"
    },
    {
      "bufferView": 0,
      "componentType": 5123,
      "count": 402,
      "type": "VEC4"
    },
    {
      "bufferView": 4,
      "componentType": 5126,
      "count": 402,
      "max": [
        1.0,
        0.4967746436595917,
        0.2167418897151947,
        0.18713858723640442
      ],
      "min": [
        0.3506506085395813,
        0.0,
        0.0,
        0.0
      ],
      "type": "VEC4"
    },
    {
      "bufferView": 0,
      "byteOffset": 3216,
      "componentType": 5123,
      "count": 22,
      "type": "VEC4"
    },
    {
      "bufferView": 4,
      "byteOffset": 6432,
      "componentType": 5126,
      "count": 22,
      "max": [
        1.0,
        0.2778245508670807,
        0.11590946465730667,
        0.04406771808862686
      ],
      "min": [
        0.6062660217285156,
        0.0,
        0.0,
        0.0
      ],
      "type": "VEC4"
    }
  ],
  "asset": {
    "extras": {
      "author": "jaspermateodev (https://sketchfab.com/jaspermateodev)",
      "license": "CC-BY-4.0 (http://creativecommons.org/licenses/by/4.0/)",
      "source": "https://sketchfab.com/3d-models/yoshi-model-615e0c0b6e6146cab7861974ae2e73b9",
      "title": "Yoshi Model"
    },
    "generator": "Sketchfab-14.77.0",
    "version": "2.0"
  },
  "bufferViews": [
    {
      "buffer": 0,
      "byteLength": 3392,
      "byteStride": 8,
      "name": "shortBufferViews",
      "target": 34962
    },
    {
      "buffer": 0,
      "byteLength": 3672,
      "byteOffset": 3392,
      "name": "floatBufferViews",
      "target": 34963
    },
    {
      "buffer": 0,
      "byteLength": 3392,
      "byteOffset": 7064,
      "byteStride": 8,
      "name": "floatBufferViews",
      "target": 34962
    },
    {
      "buffer": 0,
      "byteLength": 10176,
      "byteOffset": 10456,
      "byteStride": 12,
      "name": "floatBufferViews",
      "target": 34962
    },
    {
      "buffer": 0,
      "byteLength": 6784,
      "byteOffset": 20632,
      "byteStride": 16,
      "name": "floatBufferViews",
      "target": 34962
    },
    {
      "buffer": 0,
      "byteLength": 2240,
      "byteOffset": 27416,
      "name": "floatBufferViews"
    }
  ],
  "buffers": [
    {
      "byteLength": 29656,
      "uri": "scene.bin"
    }
  ],
  "images": [
    {
      "uri": "textures/yoshi_body_baseColor.png"
    },
    {
      "uri": "textures/yoshi_eyes_baseColor.png"
    }
  ],
  "materials": [
    {
      "doubleSided": true,
      "name": "yoshi_body",
      "pbrMetallicRoughness": {
        "baseColorTexture": {
          "index": 0
        },
        "metallicFactor": 0.0,
        "roughnessFactor": 0.673268
      }
    },
    {
      "doubleSided": true,
      "name": "yoshi_eyes",
      "pbrMetallicRoughness": {
        "baseColorTexture": {
          "index": 1
        },
        "metallicFactor": 0.0,
        "roughnessFactor": 0.673268
      }
    }
  ],
  "meshes": [
    {
      "name": "Object_0",
      "primitives": [
        {
          "attributes": {
            "JOINTS_0": 9,
            "NORMAL": 1,
            "POSITION": 0,
            "TEXCOORD_0": 2,
            "WEIGHTS_0": 10
          },
          "indices": 3,
          "material": 0,
          "mode": 4
        }
      ]
    },
    {
      "name": "Object_1",
      "primitives": [
        {
          "attributes": {
            "JOINTS_0": 11,
            "NORMAL": 5,
            "POSITION": 4,
            "TEXCOORD_0": 6,
            "WEIGHTS_0": 12
          },
          "indices": 7,
          "material": 1,
          "mode": 4
        }
      ]
    }
  ],
  "nodes": [
    {
      "children": [
        1
      ],
      "matrix": [
        1.0,
        0.0,
        0.0,
        0.0,
        0.0,
        2.220446049250313e-16,
        -1.0,
        0.0,
        0.0,
        1.0,
        2.220446049250313e-16,
        0.0,
        0.0,
        0.0,
        0.0,
        1.0
      ],
      "name": "Sketchfab_model"
    },
    {
      "children": [
        2
      ],
      "name": "root"
    },
    {
      "children": [
        3
      ],
      "matrix": [
        1.0,
        0.0,
        0.0,
        0.0,
        0.0,
        2.220446049250313e-16,
        1.0,
        0.0,
        0.0,
        -1.0,
        2.220446049250313e-16,
        0.0,
        0.0,
        0.0,
        0.0,
        1.0
      ],
      "name": "GLTF_SceneRootNode"
    },
    {
      "children": [
        4
      ],
      "matrix": [
        1.0,
        0.0,
        0.0,
        0.0,
        0.0,
        1.0,
        0.0,
        0.0,
        0.0,
        0.0,
        1.0,
        0.0,
        -0.036108169704675674,
        0.2863618731498718,
        -0.004064831882715225,
        1.0
      ],
      "name": "Armature_35"
    },
    {
      "children": [
        5,
        7,
        8,
        6
      ],
      "name": "GLTF_created_0"
    },
    {
      "children": [
        9,
        35,
        39
      ],
      "name": "GLTF_created_0_rootJoint"
    },
    {
      "name": "yoshi_34"
    },
    {
      "mesh": 0,
      "name": "Object_7",
      "skin": 0
    },
    {
      "mesh": 1,
      "name": "Object_8",
      "skin": 0
    },
    {
      "children": [
        10
      ],
      "name": "Bone_25",
      "rotation": [
        -0.009930393658578396,
        -0.004814885091036558,
        -0.2755202651023865,
        0.9612319469451904
      ]
    },
    {
      "children": [
        11,
        15,
        19
      ],
      "name": "Bone.001_24",
      "rotation": [
        0.2751966416835785,
        -0.9603372812271118,
        -0.04263703152537346,
        0.014188290573656559
      ],
      "scale": [
        0.9999999403953552,
        0.9999999403953552,
        1.0000001192092896
      ],
      "translation": [
        -2.361769624315002e-08,
        0.24827155470848083,
        1.6258646651223785e-09
      ]
    },
    {
      "children": [
        12
      ],
      "name": "Bone.002_3",
      "rotation": [
        -0.747269868850708,
        -0.2646235525608063,
        -0.23206672072410583,
        0.5636551976203918
      ],
      "scale": [
        1.0000001192092896,
        1.0000001192092896,
        1.0000001192092896
      ],
      "translation": [
        2.0664375099954668e-08,
        0.17466723918914795,
        -2.4102927653757433e-08
      ]
    },
    {
      "children": [
        13
      ],
      "name": "Bone.003_2",
      "rotation": [
        -0.07993629574775696,
        -0.0759865939617157,
        0.30309391021728516,
        0.9465571045875549
      ],
      "scale": [
        0.9999999403953552,
        1.0,
        1.0
      ],
      "translation": [
        -1.1960477053207796e-08,
        0.24649931490421295,
        -2.041560165366718e-08
      ]
    },
    {
      "children": [
        14
      ],
      "name": "Bone.004_1",
      "rotation": [
        -0.22231446206569672,
        0.0441330261528492,
        0.2874435782432556,
        0.9305937886238098
      ],
      "scale": [
        0.9999999403953552,
        0.9999998211860657,
        0.9999998807907104
      ],
      "translation": [
        -2.3101209833953362e-08,
        0.11667047441005707,
        8.95956642210649e-09
      ]
    },
    {
      "name": "Bone.005_0",
      "rotation": [
        -0.1126684695482254,
        0.08025035262107849,
        0.13420061767101288,
        0.9812522530555725
      ],
      "translation": [
        -1.2672084714893117e-08,
        0.12338116765022278,
        8.014846564208256e-09
      ]
    },
    {
      "children": [
        16
      ],
      "name": "Bone.006_7",
      "rotation": [
        -0.1832578033208847,
        -0.5716240406036377,
        -0.7548136711120605,
        0.2644219994544983
      ],
      "scale": [
        1.0,
        1.0,
        0.9999998807907104
      ],
      "translation": [
        8.915388427510607e-09,
        0.17466720938682556,
        -1.4489494049030327e-08
      ]
    },
    {
      "children": [
        17
      ],
      "name": "Bone.007_6",
      "rotation": [
        -0.22330012917518616,
        0.2196003943681717,
        -0.18938909471035004,
        0.9306151866912842
      ],
      "scale": [
        1.0000001192092896,
        1.0000001192092896,
        1.0000001192092896
      ],
      "translation": [
        -1.4731682540514157e-09,
        0.21628320217132568,
        -3.5467209613671e-08
      ]
    },
    {
      "children": [
        18
      ],
      "name": "Bone.008_5",
      "rotation": [
        -0.11085515469312668,
        -0.07606068253517151,
        -0.45046982169151306,
        0.8826113939285278
      ],
      "translation": [
        5.159579874458586e-09,
        0.13502497971057892,
        -3.060587516756641e-08
      ]
    },
    {
      "name": "Bone.009_4",
      "rotation": [
        0.06331031024456024,
        -0.06905505061149597,
        -0.11274769902229309,
        0.9891972541809082
      ],
      "scale": [
        1.0000001192092896,
        0.9999999403953552,
        0.9999999403953552
      ],
      "translation": [
        1.2002739246952387e-08,
        0.15896278619766235,
        -3.119430758147246e-08
      ]
    },
    {
      "children": [
        20,
        25,
        28,
        29
      ],
      "name": "Bone.018_23",
      "rotation": [
        -0.43200087547302246,
        -0.5291162133216858,
        -0.4690799415111542,
        0.5597994923591614
      ],
      "scale": [
        1.0,
        1.0000001192092896,
        1.0000001192092896
      ],
      "translation": [
        1.5031403677312483e-08,
        0.17466720938682556,
        -1.382664316373905e-09
      ]
    },
    {
      "children": [
        21
      ],
      "name": "Bone.019_12",
      "rotation": [
        0.5454181432723999,
        2.3059426723648357e-07,
        3.6446306239668047e-07,
        0.8381640911102295
      ],
      "translation": [
        -3.963734895862103e-10,
        0.10207626223564148,
        2.200969539956077e-08
      ]
    },
    {
      "children": [
        22,
        23
      ],
      "name": "Bone.020_11",
      "rotation": [
        0.08074849098920822,
        5.004312129130994e-07,
        1.1501008856384942e-07,
        0.9967344999313354
      ],
      "scale": [
        1.0,
        0.9999999403953552,
        1.0
      ],
      "translation": [
        8.310907517738997e-10,
        0.1192987710237503,
        -4.168549505578767e-09
      ]
    },
    {
      "name": "Bone.021_8",
      "rotation": [
        0.009496108628809452,
        0.9995542168617249,
        0.028284044936299324,
        0.0010830169776454568
      ],
      "scale": [
        1.0,
        0.9999997615814209,
        1.0000001192092896
      ],
      "translation": [
        8.658180838949647e-10,
        0.189832866191864,
        3.102061718607274e-09
      ]
    },
    {
      "children": [
        24
      ],
      "name": "Bone.022_10",
      "rotation": [
        -7.619217399223999e-07,
        0.5395021438598633,
        0.841984212398529,
        5.552405468733923e-07
      ],
      "scale": [
        1.0,
        1.0,
        0.9999999403953552
      ],
      "translation": [
        -6.550449072051379e-11,
        0.189832866191864,
        3.1020421786820407e-09
      ]
    },
    {
      "name": "Bone.023_9",
      "rotation": [
        0.1831103265285492,
        0.005856852512806654,
        0.002643986837938428,
        0.9830713868141174
      ],
      "scale": [
        0.9999999403953552,
        0.9999999403953552,
        1.0000001192092896
      ],
      "translation": [
        -7.204688928785785e-11,
        0.17883852124214172,
        7.558220160852613e-10
      ]
    },
    {
      "children": [
        26
      ],
      "name": "Bone.024_15",
      "rotation": [
        -0.5692367553710938,
        -1.0895683999478933e-07,
        -1.413709611597369e-07,
        0.8221736550331116
      ],
      "scale": [
        1.0,
        0.9999999403953552,
        1.0
      ],
      "translation": [
        -8.620347768939496e-10,
        0.10207626223564148,
        2.200969539956077e-08
      ]
    },
    {
      "children": [
        27
      ],
      "name": "Bone.025_14",
      "rotation": [
        0.5030173063278198,
        -4.240110129671848e-08,
        4.126398778225848e-08,
        0.8642763495445251
      ],
      "scale": [
        1.0,
        0.9999999403953552,
        1.0
      ],
      "translation": [
        8.184097843866311e-10,
        0.38018661737442017,
        -4.447588963785165e-10
      ]
    },
    {
      "name": "Bone.026_13",
      "rotation": [
        0.27095165848731995,
        9.604134731944214e-08,
        3.498180944916385e-08,
        0.9625929594039917
      ],
      "translation": [
        5.697511906710417e-10,
        0.08805441856384277,
        -3.2014035866723134e-09
      ]
    },
    {
      "name": "Bone.027_16",
      "rotation": [
        -0.37710365653038025,
        -1.1519676235138832e-07,
        -9.330492645176491e-08,
        0.926171064376831
      ],
      "translation": [
        6.928779772152893e-11,
        0.10207626223564148,
        2.200969539956077e-08
      ]
    },
    {
      "children": [
        30,
        31,
        32,
        33,
        34
      ],
      "name": "Bone.028_22",
      "rotation": [
        0.22258366644382477,
        -0.00011453405022621155,
        0.0007201815024018288,
        0.9749133586883545
      ],
      "scale": [
        0.9999999403953552,
        1.0,
        1.0
      ],
      "translation": [
        -3.7468908531401723e-10,
        0.10207624733448029,
        1.5542600095841408e-08
      ]
    },
    {
      "name": "Bone.029_17",
      "rotation": [
        -0.5862194895744324,
        0.0003869852516800165,
        -0.0006180483615025878,
        0.8101519346237183
      ],
      "scale": [
        1.0,
        0.9999998807907104,
        1.0
      ],
      "translation": [
        -1.012242623055215e-09,
        0.17105773091316223,
        2.7201732422099667e-08
      ]
    },
    {
      "name": "Bone.030_18",
      "rotation": [
        -0.39783892035484314,
        -0.0019165124977007508,
        -0.003673576284199953,
        0.917445957660675
      ],
      "scale": [
        1.0,
        0.9999999403953552,
        1.0000001192092896
      ],
      "translation": [
        -0.0005559336277656257,
        0.31927576661109924,
        0.07651406526565552
      ]
    },
    {
      "name": "Bone.031_19",
      "rotation": [
        -0.00021593856217805296,
        -0.2318357229232788,
        0.9727546572685242,
        0.0006963337073102593
      ],
      "scale": [
        0.9999998807907104,
        0.9999996423721313,
        0.9999990463256836
      ],
      "translation": [
        -0.0005559333949349821,
        0.3192758560180664,
        0.07651406526565552
      ]
    },
    {
      "name": "Bone.032_20",
      "rotation": [
        0.011720502749085426,
        -0.004032258875668049,
        -0.004373722244054079,
        0.9999136328697205
      ],
      "scale": [
        0.9999999403953552,
        1.0,
        1.0
      ],
      "translation": [
        -0.0013033866416662931,
        0.3383106589317322,
        0.1895514577627182
      ]
    },
    {
      "name": "Bone.033_21",
      "rotation": [
        -0.7647313475608826,
        0.0005250099929980934,
        -0.0005062299314886332,
        0.6443488597869873
      ],
      "scale": [
        1.0,
        0.9999998211860657,
        1.0
      ],
      "translation": [
        -0.0013033886207267642,
        0.3383105993270874,
        0.1895514577627182
      ]
    },
    {
      "children": [
        36
      ],
      "name": "Bone.010_29",
      "rotation": [
        1.0166090902430369e-07,
        -0.852870762348175,
        -0.5221222043037415,
        1.660600759123554e-07
      ],
      "scale": [
        1.0,
        0.9999997615814209,
        0.9999988079071045
      ]
    },
    {
      "children": [
        37
      ],
      "name": "Bone.011_28",
      "rotation": [
        -0.7706191539764404,
        0.007541111204773188,
        0.006484647747129202,
        0.6372184157371521
      ],
      "scale": [
        1.0000001192092896,
        0.9999999403953552,
        0.9999999403953552
      ],
      "translation": [
        -2.0700940961404513e-11,
        0.16799169778823853,
        2.668124166049779e-09
      ]
    },
    {
      "children": [
        38
      ],
      "name": "Bone.012_27",
      "rotation": [
        -0.10333291441202164,
        -0.0044412449933588505,
        -0.06650394201278687,
        0.9924111366271973
      ],
      "scale": [
        0.9999999403953552,
        1.0,
        0.9999999403953552
      ],
      "translation": [
        -1.1251070075601888e-09,
        0.10825734585523605,
        -4.819814769518871e-09
      ]
    },
    {
      "name": "Bone.013_26",
      "rotation": [
        0.5091410875320435,
        -0.4503716826438904,
        0.5492787957191467,
        0.48603856563568115
      ],
      "scale": [
        1.0,
        1.000000238418579,
        1.0000001192092896
      ],
      "translation": [
        -4.274540721382891e-09,
        0.19601178169250488,
        -1.740629507196445e-08
      ]
    },
    {
      "children": [
        40
      ],
      "name": "Bone.014_33",
      "rotation": [
        -0.1623201221227646,
        0.7810521721839905,
        -0.5945382714271545,
        0.1006675735116005
      ],
      "scale": [
        1.0,
        0.9999997615814209,
        1.0
      ],
      "translation": [
        0.029304811730980873,
        -0.00636656628921628,
        -0.0015915929106995463
      ]
    },
    {
      "children": [
        41
      ],
      "name": "Bone.015_32",
      "rotation": [
        0.7230061888694763,
        0.2058531939983368,
        -0.106101855635643,
        0.6508678197860718
      ],
      "scale": [
        1.0,
        0.9999999403953552,
        1.0
      ],
      "translation": [
        6.038530786511842e-10,
        0.17217469215393066,
        6.892074022601946e-09
      ]
    },
    {
      "children": [
        42
      ],
      "name": "Bone.016_31",
      "rotation": [
        0.11982723325490952,
        0.001964452676475048,
        -0.015306510031223297,
        0.9926748275756836
      ],
      "scale": [
        1.0000001192092896,
        1.0,
        1.0000001192092896
      ],
      "translation": [
        -4.5580636487407844e-10,
        0.07770498842000961,
        -1.2159457440930055e-08
      ]
    },
    {
      "name": "Bone.017_30",
      "rotation": [
        0.5092654228210449,
        -0.4499944746494293,
        0.5555664300918579,
        0.4790612757205963
      ],
      "scale": [
        0.9999998807907104,
        1.000000238418579,
        0.9999999403953552
      ],
      "translation": [
        -2.909915863824608e-09,
        0.19601158797740936,
        -7.282998204516389e-09
      ]
    }
  ],
  "samplers": [
    {
      "magFilter": 9729,
      "minFilter": 9987,
      "wrapS": 10497,
      "wrapT": 10497
    }
  ],
  "scene": 0,
  "scenes": [
    {
      "name": "Sketchfab_Scene",
      "nodes": [
        0
      ]
    }
  ],
  "skins": [
    {
      "inverseBindMatrices": 8,
      "joints": [
        5,
        9,
        10,
        11,
        12,
        13,
        14,
        15,
        16,
        17,
        18,
        19,
        20,
        21,
        22,
        23,
        24,
        25,
        26,
        27,
        28,
        29,
        30,
        31,
        32,
        33,
        34,
        35,
        36,
        37,
        38,
        39,
        40,
        41,
        42
      ],
      "skeleton": 5
    }
  ],
  "textures": [
    {
      "sampler": 0,
      "source": 0
    },
    {
      "sampler": 0,
      "source": 1
    }
  ]
}
